<svg xmlns="http://www.w3.org/2000/svg" width="1024" height="1024" viewBox="0 0 1024 1024" version="1.1"><path d="M 610.500 201.029 C 593.663 203.468, 580.249 211.410, 571.262 224.261 C 564.601 233.786, 562.784 239.623, 562.230 253.281 C 561.810 263.609, 562.026 265.875, 563.976 271.649 C 568.730 285.723, 578.440 297.354, 590.551 303.481 L 596.148 306.313 595.781 349.407 C 595.428 390.924, 595.330 392.789, 593.102 400.413 C 587.617 419.179, 581.958 427.368, 559.174 449.500 C 518.778 488.741, 506.958 506.846, 497.805 543.500 C 495.631 552.202, 495.548 554.319, 495.272 607.500 C 495.115 637.750, 494.756 663.513, 494.474 664.750 L 493.962 667 431.731 667.024 C 392.438 667.040, 367.841 667.431, 365 668.085 C 352.728 670.912, 340.250 680.758, 334.398 692.232 C 330.779 699.329, 329.574 710.086, 331.412 718.900 C 334.994 736.081, 345.390 747.327, 363.285 753.381 C 367.608 754.844, 382.151 755, 513.825 755 C 671.525 755, 664.553 755.225, 676 749.770 C 682.555 746.646, 691.664 736.927, 695.374 729.098 C 698.335 722.848, 698.500 721.868, 698.500 710.500 C 698.500 699.137, 698.335 698.155, 695.393 692 C 690.479 681.717, 681.882 674.036, 669.967 669.282 C 665.892 667.656, 659.801 667.456, 600.500 667 L 535.500 666.500 535.531 618.500 C 535.561 572.085, 535.636 570.205, 537.812 561.578 C 539.050 556.670, 541.379 549.920, 542.989 546.578 C 553.319 525.130, 581.568 507.765, 616.500 501.392 C 636.420 497.758, 672.275 499.330, 702 505.142 C 708.969 506.504, 709.636 507.088, 710.454 512.542 C 711.417 518.961, 718.121 531.725, 723.453 537.290 C 729.977 544.099, 739.140 549.674, 748.501 552.529 C 773.824 560.253, 801.707 548.097, 814.017 523.966 C 818.954 514.289, 820.565 495.637, 817.388 484.932 C 811.792 466.068, 796.308 451.510, 777 446.957 C 773.975 446.243, 767.450 445.698, 762.500 445.745 C 747.498 445.887, 736.060 450.914, 723.903 462.706 L 718.306 468.135 710.286 466.614 C 688.476 462.477, 668.623 460.630, 645.251 460.565 C 632.464 460.529, 622.002 460.439, 622.001 460.364 C 621.998 459.927, 636.772 451.605, 643.805 448.082 C 655.641 442.154, 662.191 439.926, 722 421.491 C 733.825 417.846, 750.700 412.383, 759.500 409.351 C 768.300 406.320, 778.799 402.743, 782.832 401.403 C 786.864 400.063, 793.614 397.347, 797.832 395.368 C 805.466 391.785, 805.513 391.777, 808.500 393.570 C 827.500 404.978, 845.659 406.201, 864.630 397.349 C 872.245 393.796, 884.421 381.717, 888.670 373.500 C 902.671 346.423, 892.147 314.304, 864.763 300.535 C 855.647 295.952, 848.615 294.639, 836.468 295.254 C 825.500 295.810, 816.629 298.619, 808.486 304.114 C 801.638 308.736, 793.410 318.392, 789.391 326.522 C 785.972 333.442, 785.631 334.914, 785.198 344.652 L 784.727 355.251 777.613 358.584 C 770.919 361.720, 730.957 375.182, 697.500 385.571 C 689.250 388.133, 678 391.705, 672.500 393.508 C 667 395.311, 659.125 397.802, 655 399.044 C 650.875 400.286, 644.864 402.385, 641.642 403.709 C 638.420 405.033, 635.562 405.896, 635.292 405.626 C 635.022 405.355, 635.396 400.492, 636.124 394.817 C 637.016 387.859, 637.455 371.840, 637.473 345.612 L 637.500 306.723 644 302.793 C 656.012 295.529, 664.832 284.826, 669.155 272.266 C 672.537 262.438, 672.382 247.355, 668.797 237.422 C 664.549 225.652, 657.860 217.039, 647.605 210.132 C 637.056 203.026, 622.080 199.352, 610.500 201.029 M 202 239.715 C 197.874 240.446, 185.825 246.595, 180.745 250.562 C 169.276 259.519, 161.980 275.132, 162.016 290.644 C 162.037 299.912, 164.047 307.816, 168.113 314.613 C 170.529 318.652, 194.533 343.331, 251.821 400.673 C 295.998 444.892, 331.998 481.499, 331.821 482.021 C 331.645 482.544, 295.673 518.865, 251.885 562.736 C 179.277 635.481, 171.995 643.072, 169.136 649 C 162.975 661.772, 162.587 675.354, 168.012 688.361 C 173.487 701.491, 182.694 710.595, 197 717.027 C 202.006 719.278, 203.757 719.500, 216.500 719.500 L 230.500 719.500 239.351 715 L 248.201 710.500 351.649 607 C 468.074 490.517, 460.962 498.554, 461.804 482.518 C 462.157 475.791, 461.817 472.959, 460 467.501 C 458.081 461.733, 456.536 459.473, 449.158 451.638 C 444.426 446.612, 397.114 399.075, 344.020 346 C 273.888 275.892, 245.965 248.608, 241.925 246.238 C 232.182 240.523, 226.295 238.983, 214.775 239.136 C 209.124 239.211, 203.375 239.472, 202 239.715" stroke="none" fill="#50fa7b" fill-rule="evenodd"/></svg>